<?xml version="1.0" standalone="no"?>
<!DOCTYPE svg PUBLIC "-//W3C//DTD SVG 20010904//EN"
 "http://www.w3.org/TR/2001/REC-SVG-20010904/DTD/svg10.dtd">
<svg version="1.0" xmlns="http://www.w3.org/2000/svg"
 width="700.000000pt" height="700.000000pt" viewBox="0 0 700.000000 700.000000"
 preserveAspectRatio="xMidYMid meet">
<metadata>
Created by potrace 1.11, written by Peter Selinger 2001-2013
</metadata>
<g transform="translate(0.000000,700.000000) scale(0.100000,-0.100000)"
fill="#000000" stroke="none">
<path d="M280 4060 l0 -2940 840 0 840 0 2 1467 3 1467 55 -85 c30 -46 57 -86
60 -89 3 -3 31 -45 64 -95 32 -49 67 -102 77 -117 18 -26 19 -77 19 -1428 l0
-1400 -700 0 -700 0 0 -140 0 -140 840 0 840 0 0 1347 0 1347 76 -104 c42 -58
90 -123 106 -145 16 -22 44 -61 63 -87 l35 -47 0 -1295 0 -1296 -700 0 -700 0
0 -140 0 -140 840 0 840 0 2 1239 3 1240 155 -216 c85 -118 162 -224 170 -236
24 -36 370 -518 410 -572 20 -27 59 -81 85 -120 27 -38 53 -74 57 -80 5 -5 29
-38 53 -72 l45 -63 770 0 770 0 0 2940 0 2940 -840 0 -840 0 -2 -1397 -3
-1396 -1048 1396 -1047 1397 -770 0 -770 0 0 -2940z m2657 983 l1258 -1676 3
1676 2 1677 560 0 560 0 0 -2660 0 -2660 -562 2 -562 3 -93 130 c-51 72 -107
150 -124 175 -66 94 -174 245 -179 250 -5 5 -13 17 -88 125 -23 33 -82 116
-131 185 -104 144 -349 488 -621 870 -104 146 -221 310 -260 365 -39 55 -134
188 -210 295 -76 107 -147 206 -158 220 -10 14 -56 79 -103 145 -46 66 -86
122 -89 125 -3 3 -26 34 -51 70 -24 35 -49 71 -56 80 -14 18 -147 204 -265
372 l-83 118 -3 -1765 -2 -1765 -560 0 -560 0 0 2660 0 2660 560 0 560 0 1257
-1677z"/>
<path d="M5880 3640 l0 -2800 -700 0 -700 0 0 -140 0 -140 840 0 840 0 0 2940
0 2940 -140 0 -140 0 0 -2800z"/>
<path d="M6440 3080 l0 -2800 -700 0 -700 0 0 -140 0 -140 840 0 840 0 0 2940
0 2940 -140 0 -140 0 0 -2800z"/>
</g>
</svg>
