<?xml version="1.0" encoding="UTF-8" standalone="no"?>
<svg
   xmlns:dc="http://purl.org/dc/elements/1.1/"
   xmlns:cc="http://creativecommons.org/ns#"
   xmlns:rdf="http://www.w3.org/1999/02/22-rdf-syntax-ns#"
   xmlns:svg="http://www.w3.org/2000/svg"
   xmlns="http://www.w3.org/2000/svg"
   xmlns:xlink="http://www.w3.org/1999/xlink"
   xmlns:sodipodi="http://sodipodi.sourceforge.net/DTD/sodipodi-0.dtd"
   xmlns:inkscape="http://www.inkscape.org/namespaces/inkscape"
   version="1.1"
   id="Layer_1"
   x="0px"
   y="0px"
   width="70.958519"
   height="48.967407"
   viewBox="4.75 -9.5 70.958519 66.106"
   enable-background="new 0 0 95 95"
   xml:space="preserve"
   inkscape:version="0.48.3.1 r9886"
   sodipodi:docname="film-projector.svg"><metadata
   id="metadata19"><rdf:RDF><cc:Work
       rdf:about=""><dc:format>image/svg+xml</dc:format><dc:type
         rdf:resource="http://purl.org/dc/dcmitype/StillImage" /></cc:Work></rdf:RDF></metadata><defs
   id="defs17"><linearGradient
     inkscape:collect="always"
     id="linearGradient3762"><stop
       style="stop-color:#ececec;stop-opacity:1;"
       offset="0"
       id="stop3764" /><stop
       style="stop-color:#ececec;stop-opacity:0;"
       offset="1"
       id="stop3766" /></linearGradient><linearGradient
     inkscape:collect="always"
     xlink:href="#linearGradient3762"
     id="linearGradient3768"
     x1="45.480694"
     y1="63.633167"
     x2="92.168839"
     y2="63.633167"
     gradientUnits="userSpaceOnUse" /></defs><sodipodi:namedview
   pagecolor="#ffffff"
   bordercolor="#666666"
   borderopacity="1"
   objecttolerance="10"
   gridtolerance="10"
   guidetolerance="10"
   inkscape:pageopacity="0"
   inkscape:pageshadow="2"
   inkscape:window-width="1200"
   inkscape:window-height="1870"
   id="namedview15"
   showgrid="false"
   fit-margin-top="1"
   fit-margin-left="1"
   fit-margin-right="1"
   fit-margin-bottom="1"
   inkscape:zoom="7.0264085"
   inkscape:cx="29.417755"
   inkscape:cy="21.860796"
   inkscape:window-x="0"
   inkscape:window-y="0"
   inkscape:window-maximized="1"
   inkscape:current-layer="layer2" />




<g
   inkscape:groupmode="layer"
   id="layer2"
   inkscape:label="Projector"><polygon
     points="44.582,65.759 44.79,63.639 44.582,61.602 95,50.895 95,73.694 "
     id="polygon3"
     style="fill:url(#linearGradient3768);fill-opacity:1"
     transform="translate(-8.5737409,-25.664)" /><path
     d="m 47.296259,-1.9329997 c -0.141,0 -0.282,0 -0.423,0.011003 l -34.706,-5.8650025 -1.078,-0.181 c -0.736,-0.1110005 -1.4920001,-0.1820005 -2.2579996,-0.1820005 -8.55600031,0 -15.4990004,6.9330001 -15.4990004,15.4990004 0,4.6859993 2.076,8.8779993 5.371,11.7199993 l 15.872001,25.535 0.02099,-0.029 v 0.06099 l -0.02099,-0.031 V 55.255998 H 45.431259 V 43.919001 h -11.83 V 40.473 h 1.764001 v -5.119 h -1.764001 v -3.445999 l -1.572,-4.877001 10.823,1.38 h 0.02101 c 0.041,0.02101 0.081,0.03 0.121,0.041 1.31,0.373 2.669999,0.584 4.091,0.594 h 0.02101 c 0.06099,0.01 0.131004,0.01 0.190999,0.01 8.556,0 15.488001,-6.941999 15.488001,-15.498 -0.001,-8.5569996 -6.93302,-15.4909997 -15.48902,-15.4909997 z M 13.53726,-4.2899996 c 4.594999,1.8539999 7.839999,6.3689999 7.839999,11.6390003 0,0.2109996 -0.01,0.4229996 -0.01999,0.6250001 L 14.101265,6.3520001 c -0.251999,-1.4009998 -1.057999,-2.6209998 -2.187,-3.4069998 l 1.623001,-7.2349999 z m -0.816001,15.3270006 1.411,7.678999 c -1.612,0.755 -3.406001,1.179 -5.3000006,1.179 -0.2419996,0 -0.4829989,-0.01094 -0.7149991,-0.02101 l 1.6219993,-7.235 c 1.1680014,-0.190999 2.2160004,-0.776 2.9820004,-1.601998 z M 7.854259,7.833 C 7.6222588,7.853007 7.4212587,7.6720004 7.4012584,7.4400002 7.3912684,7.208 7.5622594,7.0060008 7.7942596,6.9860006 c 0.2419997,-0.00999 0.432999,0.162 0.4529993,0.3940002 C 8.2672659,7.6210001 8.0862592,7.8230006 7.854259,7.833 z M 8.7912589,6.7639998 C 8.5592587,6.7739898 8.3572596,6.6030002 8.3372593,6.371 8.3272693,6.1290003 8.4992593,5.9280002 8.7312595,5.9170004 8.9732592,5.8959944 9.1742593,6.078 9.1852591,6.3100002 c 0.018994,0.2330006 -0.162,0.4340007 -0.3940002,0.4539996 z M 9.3252595,8.3160003 C 9.3352495,8.558 9.1632595,8.7590001 8.9322597,8.7699999 8.6902587,8.7910059 8.4892585,8.6090003 8.4782587,8.3770001 8.4572662,8.1460002 8.6392597,7.9439997 8.8712586,7.9240008 9.1042591,7.9130658 9.3052593,8.0850005 9.3252595,8.3160003 z M 9.8092588,6.8550006 c 0.2310002,-0.020007 0.4330002,0.1609997 0.4530002,0.3929999 0.01,0.2309998 -0.162,0.4330003 -0.3929994,0.4539996 -0.242001,0.00999 -0.4330004,-0.162 -0.454001,-0.3929999 -0.018994,-0.2419996 0.162,-0.4440001 0.3940002,-0.4539996 z M 8.8312594,-5.2069997 c 0.1820003,0 0.3729996,0 0.5539995,0.02 l -1.6229997,7.266 c -1.3400001,0.263 -2.5090001,1.0390001 -3.2750001,2.1170001 l -7.2550001,-1.623 c 1.864,-4.5660001 6.3590001,-7.7800001 11.5990004,-7.7800001 z M -3.714741,7.3490007 c 0,-0.2210004 0.010003,-0.4330003 0.021001,-0.6450003 l 7.256,1.6219994 c 0.241,1.3510003 0.997,2.5290012 2.0559999,3.3260002 L 3.9952596,18.928 C -0.530741,17.033 -3.714741,12.559 -3.714741,7.3490007 z M 14.596259,25.608 v 17.414 l -15.711,-23.792001 c 2.69,2.248002 6.1670001,3.608001 9.9460004,3.608001 2.0659996,0 4.0409996,-0.404 5.8449996,-1.147999 l 0.715,3.919 h -0.795 z m 1.28,-14.520999 4.564,1.017999 c -0.765999,1.863999 -1.965,3.517 -3.496999,4.806999 L 15.876259,11.087001 z M 18.53626,25.608 17.538259,20.167001 c 4.101,-2.791001 6.791999,-7.487 6.791999,-12.8180003 0,-6.45900035 -3.938998,-11.9810004 -9.541999,-14.3200004 l 31.844,5.059 c -8.253,0.3420001 -14.833,7.135 -14.833,15.4689997 0,1.693 0.272001,3.315 0.776,4.835999 l -6.077,7.215001 H 18.53626 z m 20.204999,-14.540999 -0.01093,0.01 -3.819,4.543999 c -0.110997,-0.664999 -0.170999,-1.359999 -0.170999,-2.064999 0,-4.152 2.025999,-7.8400002 5.138999,-10.1180001 l 3.315,6.6410001 c -0.252,0.292 -0.464,0.615001 -0.645,0.958001 l -3.808,0.03 z m 3.224,3.154999 -3.204,1.602001 1.4,-1.653001 1.794,-0.01 c 0,0.01999 0.01,0.041 0.01,0.06101 z m -10.198,12.666 -1.924,-0.472999 L 33.99526,21.487 c 1.651999,2.791 4.162,5.008 7.164999,6.309001 l -9.393,-0.908001 z m 15.529,-0.784999 c -4.031,0 -7.618,-1.895001 -9.916,-4.848002 l 6.731,-3.364999 c 0.897,0.655 1.996001,1.038 3.185,1.038 0.110997,0 0.222001,0 0.322,-0.01999 l 3.315,6.651 c -1.149,0.351999 -2.376999,0.544 -3.637,0.544 z M 46.773259,13.284 c -0.102006,0.212 -0.363,0.292 -0.565,0.182 -0.211,-0.110997 -0.292,-0.363 -0.181,-0.575 0.101007,-0.201 0.362,-0.282 0.563,-0.171 0.212,0.101007 0.293,0.363 0.183,0.564 z m 0.252001,0.797 c 0.2,0.100993 0.281,0.362001 0.181,0.564 -0.110997,0.210999 -0.363,0.291999 -0.574001,0.181 -0.212,-0.110997 -0.281,-0.363 -0.181999,-0.575 0.110997,-0.201001 0.363,-0.281 0.575,-0.17 z m 1.107999,-1.22 c -0.110997,0.201001 -0.363,0.282001 -0.575,0.181 -0.201,-0.110997 -0.281,-0.363 -0.170999,-0.575 0.101007,-0.210999 0.363,-0.291999 0.563999,-0.181 0.212001,0.111996 0.292,0.363001 0.182,0.575 z m 0.251,0.786 c 0.202,0.110997 0.283,0.363 0.182,0.575 -0.109998,0.201 -0.362,0.282 -0.574,0.181 -0.210999,-0.110997 -0.291999,-0.372999 -0.182,-0.574 0.110997,-0.212 0.363,-0.293 0.574,-0.182 z m -1.088,-5.4619996 c -0.100994,0 -0.201999,0 -0.292,0.021006 l -3.336,-6.661006 c 1.148,-0.3530001 2.368,-0.5340001 3.628,-0.5340001 4.272001,0 8.042,2.136 10.31,5.4010005 L 51.02526,9.6970004 c -0.967001,-0.9380003 -2.278001,-1.512 -3.729001,-1.512 z m 7.427,15.4789996 -3.325,-6.651 c 0.775,-0.917 1.26,-2.095999 1.270001,-3.396 l 6.730999,-3.366 c 0.292001,1.048001 0.443001,2.157 0.443001,3.306 0,4.152 -2.015001,7.828999 -5.119001,10.107 z"
     id="path5"
     inkscape:connector-curvature="0"
     style="fill:#ececec" /><polygon
     points="55.679,54.709 55.679,54.719 55.668,54.709 "
     id="polygon7"
     style="fill:#ececec"
     transform="translate(-8.5737409,-25.664)" /><polygon
     points="47.315,36.731 47.304,36.742 47.304,36.731 "
     id="polygon9"
     style="fill:#ececec"
     transform="translate(-8.5737409,-25.664)" /></g></svg>