<?xml version="1.0" encoding="UTF-8" standalone="no"?>
<svg
   xmlns:dc="http://purl.org/dc/elements/1.1/"
   xmlns:cc="http://creativecommons.org/ns#"
   xmlns:rdf="http://www.w3.org/1999/02/22-rdf-syntax-ns#"
   xmlns:svg="http://www.w3.org/2000/svg"
   xmlns="http://www.w3.org/2000/svg"
   xmlns:sodipodi="http://sodipodi.sourceforge.net/DTD/sodipodi-0.dtd"
   xmlns:inkscape="http://www.inkscape.org/namespaces/inkscape"
   version="1.1"
   id="Layer_1"
   x="0px"
   y="0px"
   width="70.958519"
   height="48.967407"
   viewBox="4.75 -9.5 70.958519 66.106"
   enable-background="new 0 0 95 95"
   xml:space="preserve"
   inkscape:version="0.48.3.1 r9886"
   sodipodi:docname="film-projector.svg"><metadata
   id="metadata19"><rdf:RDF><cc:Work
       rdf:about=""><dc:format>image/svg+xml</dc:format><dc:type
         rdf:resource="http://purl.org/dc/dcmitype/StillImage" /></cc:Work></rdf:RDF></metadata><defs
   id="defs17" /><sodipodi:namedview
   pagecolor="#ffffff"
   bordercolor="#666666"
   borderopacity="1"
   objecttolerance="10"
   gridtolerance="10"
   guidetolerance="10"
   inkscape:pageopacity="0"
   inkscape:pageshadow="2"
   inkscape:window-width="1200"
   inkscape:window-height="1870"
   id="namedview15"
   showgrid="false"
   fit-margin-top="1"
   fit-margin-left="1"
   fit-margin-right="1"
   fit-margin-bottom="1"
   inkscape:zoom="14.052817"
   inkscape:cx="35.912967"
   inkscape:cy="22.310301"
   inkscape:window-x="0"
   inkscape:window-y="0"
   inkscape:window-maximized="1"
   inkscape:current-layer="Layer_1" />
<polygon
   points="44.79,63.639 44.582,61.602 95,50.895 95,73.694 44.582,65.759 "
   id="polygon3"
   style="fill:#ececec"
   transform="translate(-8.573741,-25.664)" />
<path
   d="m 47.296259,-1.933 c -0.141,0 -0.282,0 -0.423,0.011 l -34.706,-5.865 -1.078,-0.181 c -0.736,-0.111 -1.492,-0.182 -2.258,-0.182 -8.55599998,0 -15.499,6.933 -15.499,15.499 0,4.686 2.076,8.878 5.371,11.72 l 15.872,25.535 0.021,-0.029 v 0.061 l -0.021,-0.031 v 10.651 h 30.856 V 43.919 h -11.83 v -3.446 h 1.764 v -5.119 h -1.764 v -3.446 l -1.572,-4.877 10.823,1.38 h 0.021 c 0.041,0.021 0.081,0.03 0.121,0.041 1.31,0.373 2.67,0.584 4.091,0.594 h 0.021 c 0.061,0.01 0.131,0.01 0.191,0.01 8.556,0 15.488,-6.942 15.488,-15.498 -0.001,-8.557 -6.933,-15.491 -15.489,-15.491 z m -33.759,-2.357 c 4.595,1.854 7.84,6.369 7.84,11.639 0,0.211 -0.01,0.423 -0.02,0.625 l -7.256,-1.622 c -0.252,-1.401 -1.058,-2.621 -2.187,-3.407 l 1.623,-7.235 z m -0.816,15.327 1.411,7.679 c -1.612,0.755 -3.406,1.179 -5.3,1.179 -0.242,0 -0.483,-0.011 -0.715,-0.021 l 1.622,-7.235 c 1.168,-0.191 2.216,-0.776 2.982,-1.602 z m -4.867,-3.204 c -0.232,0.02 -0.433,-0.161 -0.453,-0.393 -0.01,-0.232 0.161,-0.434 0.393,-0.454 0.242,-0.01 0.433,0.162 0.453,0.394 0.02,0.241 -0.161,0.443 -0.393,0.453 z m 0.937,-1.069 c -0.232,0.01 -0.434,-0.161 -0.454,-0.393 -0.01,-0.242 0.162,-0.443 0.394,-0.454 0.242,-0.021 0.443,0.161 0.454,0.393 0.019,0.233 -0.162,0.434 -0.394,0.454 z m 0.534,1.552 c 0.01,0.242 -0.162,0.443 -0.393,0.454 -0.242,0.021 -0.443,-0.161 -0.454,-0.393 -0.021,-0.231 0.161,-0.433 0.393,-0.453 0.233,-0.011 0.434,0.161 0.454,0.392 z m 0.484,-1.461 c 0.231,-0.02 0.433,0.161 0.453,0.393 0.01,0.231 -0.162,0.433 -0.393,0.454 -0.242,0.01 -0.433,-0.162 -0.454,-0.393 -0.019,-0.242 0.162,-0.444 0.394,-0.454 z m -0.978,-12.062 c 0.182,0 0.373,0 0.554,0.02 l -1.623,7.266 c -1.34,0.263 -2.509,1.039 -3.275,2.117 l -7.255,-1.623 c 1.86400002,-4.566 6.359,-7.78 11.599,-7.78 z m -12.546,12.556 c 0,-0.221 0.01,-0.433 0.021,-0.645 l 7.256,1.622 c 0.241,1.351 0.997,2.529 2.056,3.326 l -1.623,7.276 c -4.52599998,-1.895 -7.71,-6.369 -7.71,-11.579 z m 18.311,18.259 v 17.414 l -15.711,-23.792 c 2.69,2.248 6.167,3.608 9.946,3.608 2.066,0 4.041,-0.404 5.845,-1.148 l 0.715,3.919 h -0.795 z m 1.28,-14.521 4.564,1.018 c -0.766,1.864 -1.965,3.517 -3.497,4.807 l -1.067,-5.825 z m 2.66,14.521 -0.998,-5.441 c 4.101,-2.791 6.792,-7.487 6.792,-12.818 0,-6.459 -3.939,-11.981 -9.542,-14.32 l 31.844,5.059 c -8.253,0.342 -14.833,7.135 -14.833,15.469 0,1.693 0.272,3.315 0.776,4.836 l -6.077,7.215 h -7.962 z m 20.205,-14.541 -0.011,0.01 -3.819,4.544 c -0.111,-0.665 -0.171,-1.36 -0.171,-2.065 0,-4.152 2.026,-7.84 5.139,-10.118 l 3.315,6.641 c -0.252,0.292 -0.464,0.615 -0.645,0.958 l -3.808,0.03 z m 3.224,3.155 -3.204,1.602 1.4,-1.653 1.794,-0.01 c 0,0.02 0.01,0.041 0.01,0.061 z m -10.198,12.666 -1.924,-0.473 4.152,-4.928 c 1.652,2.791 4.162,5.008 7.165,6.309 l -9.393,-0.908 z m 15.529,-0.785 c -4.031,0 -7.618,-1.895 -9.916,-4.848 l 6.731,-3.365 c 0.897,0.655 1.996,1.038 3.185,1.038 0.111,0 0.222,0 0.322,-0.02 l 3.315,6.651 c -1.149,0.352 -2.377,0.544 -3.637,0.544 z m -0.523,-12.819 c -0.102,0.212 -0.363,0.292 -0.565,0.182 -0.211,-0.111 -0.292,-0.363 -0.181,-0.575 0.101,-0.201 0.362,-0.282 0.563,-0.171 0.212,0.101 0.293,0.363 0.183,0.564 z m 0.252,0.797 c 0.2,0.101 0.281,0.362 0.181,0.564 -0.111,0.211 -0.363,0.292 -0.574,0.181 -0.212,-0.111 -0.281,-0.363 -0.182,-0.575 0.111,-0.201 0.363,-0.281 0.575,-0.17 z m 1.108,-1.22 c -0.111,0.201 -0.363,0.282 -0.575,0.181 -0.201,-0.111 -0.281,-0.363 -0.171,-0.575 0.101,-0.211 0.363,-0.292 0.564,-0.181 0.212,0.112 0.292,0.363 0.182,0.575 z m 0.251,0.786 c 0.202,0.111 0.283,0.363 0.182,0.575 -0.11,0.201 -0.362,0.282 -0.574,0.181 -0.211,-0.111 -0.292,-0.373 -0.182,-0.574 0.111,-0.212 0.363,-0.293 0.574,-0.182 z m -1.088,-5.462 c -0.101,0 -0.202,0 -0.292,0.021 l -3.336,-6.661 c 1.148,-0.353 2.368,-0.534 3.628,-0.534 4.272,0 8.042,2.136 10.31,5.401 l -6.581,3.285 c -0.967,-0.938 -2.278,-1.512 -3.729,-1.512 z m 7.427,15.479 -3.325,-6.651 c 0.775,-0.917 1.26,-2.096 1.27,-3.396 l 6.731,-3.366 c 0.292,1.048 0.443,2.157 0.443,3.306 0,4.152 -2.015,7.829 -5.119,10.107 z"
   id="path5"
   inkscape:connector-curvature="0"
   style="fill:#ececec" />
<polygon
   points="55.679,54.709 55.679,54.719 55.668,54.709 "
   id="polygon7"
   style="fill:#ececec"
   transform="translate(-8.573741,-25.664)" />
<polygon
   points="47.315,36.731 47.304,36.742 47.304,36.731 "
   id="polygon9"
   style="fill:#ececec"
   transform="translate(-8.573741,-25.664)" />
</svg>