<?xml version="1.0" encoding="UTF-8" standalone="no"?>
<svg
   xmlns:dc="http://purl.org/dc/elements/1.1/"
   xmlns:cc="http://creativecommons.org/ns#"
   xmlns:rdf="http://www.w3.org/1999/02/22-rdf-syntax-ns#"
   xmlns:svg="http://www.w3.org/2000/svg"
   xmlns="http://www.w3.org/2000/svg"
   xmlns:sodipodi="http://sodipodi.sourceforge.net/DTD/sodipodi-0.dtd"
   xmlns:inkscape="http://www.inkscape.org/namespaces/inkscape"
   version="1.1"
   id="Your_Icon"
   x="0px"
   y="0px"
   width="75.324562"
   height="53.282223"
   viewBox="5 -10 75.324562 71.931001"
   enable-background="new 0 0 100 100"
   xml:space="preserve"
   inkscape:version="0.48.3.1 r9886"
   sodipodi:docname="rotation-icon.svg"><metadata
   id="metadata21"><rdf:RDF><cc:Work
       rdf:about=""><dc:format>image/svg+xml</dc:format><dc:type
         rdf:resource="http://purl.org/dc/dcmitype/StillImage" /></cc:Work></rdf:RDF></metadata><defs
   id="defs19" /><sodipodi:namedview
   pagecolor="#ffffff"
   bordercolor="#666666"
   borderopacity="1"
   objecttolerance="10"
   gridtolerance="10"
   guidetolerance="10"
   inkscape:pageopacity="0"
   inkscape:pageshadow="2"
   inkscape:window-width="1200"
   inkscape:window-height="1870"
   id="namedview17"
   showgrid="false"
   fit-margin-top="1"
   fit-margin-left="1"
   fit-margin-right="1"
   fit-margin-bottom="1"
   inkscape:zoom="2.36"
   inkscape:cx="18.019546"
   inkscape:cy="36.779422"
   inkscape:window-x="0"
   inkscape:window-y="0"
   inkscape:window-maximized="1"
   inkscape:current-layer="Your_Icon" />
<g
   id="g3"
   transform="translate(-7.1354768,-24.628)"
   style="stroke:#ffffff;stroke-opacity:1;stroke-width:2.70000001;stroke-miterlimit:4;stroke-dasharray:none">
	<path
   d="M 7.976,42.583 C 8.317,42.095 8.925,41.631 9.407,41.257 12.784,38.629 18,36.076 28,34.463 v -9.396 c -8,1.092 -14.32,2.893 -20.441,6.749 -2.057,1.658 -3.127,2.703 -3.18,5.047 -0.043,1.917 1.097,3.835 3.597,5.72 z"
   id="path5"
   inkscape:connector-curvature="0"
   style="stroke:#ffffff;stroke-opacity:1;stroke-width:2.70000001;stroke-miterlimit:4;stroke-dasharray:none" />
	<path
   d="M 49,56.123 C 39,56.02 29.765,55.016 20.4,52.817 3.734,48.907 1.663,43.429 0.786,41.597 0.193,48.908 0.959,54.393 1,54.858 1.569,61.35 8.992,66.429 14.348,68.337 25.358,72.26 37,74.289 49,74.46 V 85.209 L 69.113,65.096 49,44.982 v 11.141 z"
   id="path7"
   inkscape:connector-curvature="0"
   style="stroke:#ffffff;stroke-opacity:1;stroke-width:2.70000001;stroke-miterlimit:4;stroke-dasharray:none" />
	<path
   d="m 47,33.208 c 10,0.045 21.362,1.464 32.452,4.816 4.549,1.375 8.213,3.42 11.187,5.646 2.051,-0.659 4.991,-3.162 4.586,-5.592 -1,-6.005 -10.062,-9.481 -11.632,-9.971 C 72.64,24.685 59,23.626 47,23.525 V 15.978 L 34.545,28.434 47,40.888 v -7.68 z"
   id="path9"
   inkscape:connector-curvature="0"
   style="stroke:#ffffff;stroke-opacity:1;stroke-width:2.70000001;stroke-miterlimit:4;stroke-dasharray:none" />
	<path
   d="M 99.115,41.281 C 98.605,44.084 94,50.086 75,53.889 v 19.578 c 7,-1.591 15.25,-5.606 19.666,-9.514 1.801,-1.591 2.902,-3.786 3.572,-5.374 2.055,-4.859 1.151,-14.338 0.877,-17.298 z"
   id="path11"
   inkscape:connector-curvature="0"
   style="stroke:#ffffff;stroke-opacity:1;stroke-width:2.70000001;stroke-miterlimit:4;stroke-dasharray:none" />
</g>
</svg>