<svg viewBox="0 0 512 512">
  <g transform="matrix(3.9213539,0,0,3.9213539,59.931325,59.931815)">
    <path
       d="m 90.927,9.073 c -9.353,-9.354 -24.578,-9.354 -33.932,0 L 40.364,25.702 c 6.215,-1.195 12.741,-0.329 18.505,2.559 l 8.655,-8.658 c 3.552,-3.548 9.322,-3.548 12.873,0 3.546,3.549 3.546,9.323 -0.003,12.871 l -8.655,8.656 -3.735,3.735 -7.447,7.45 c -1.577,1.574 -3.593,2.409 -5.655,2.586 -1.681,0.143 -3.37,-0.177 -4.905,-0.958 -0.829,-0.422 -1.619,-0.937 -2.31,-1.628 -0.69,-0.692 -1.207,-1.486 -1.626,-2.312 -1.123,-0.049 -2.254,0.339 -3.107,1.191 l -8.45,8.454 c 0.785,1.118 1.656,2.195 2.654,3.194 0.999,1.001 2.077,1.868 3.195,2.653 1.43,1.008 2.94,1.854 4.513,2.507 6.959,2.899 15.004,2.369 21.572,-1.565 1.654,-0.992 3.225,-2.17 4.65,-3.595 l 3.209,-3.208 16.627,-16.63 c 9.357,-9.355 9.359,-24.576 0.003,-33.931 z" />
    <path
       d="m 41.13,71.736 -8.656,8.66 c -3.548,3.547 -9.319,3.547 -12.868,0 -3.549,-3.55 -3.549,-9.324 -0.002,-12.872 l 8.661,-8.659 3.733,-3.731 7.446,-7.448 c 1.575,-1.575 3.594,-2.411 5.657,-2.588 1.677,-0.143 3.369,0.177 4.901,0.958 0.829,0.425 1.622,0.938 2.313,1.631 0.69,0.691 1.207,1.483 1.629,2.311 1.117,0.049 2.251,-0.342 3.104,-1.192 l 8.453,-8.455 c -0.785,-1.117 -1.654,-2.196 -2.653,-3.195 -0.999,-0.999 -2.077,-1.869 -3.198,-2.653 -1.43,-1.006 -2.939,-1.848 -4.515,-2.504 -6.96,-2.902 -15.002,-2.368 -21.571,1.563 -1.656,0.992 -3.227,2.172 -4.649,3.595 L 25.706,40.366 9.074,56.995 c -9.357,9.355 -9.354,24.576 0.002,33.933 9.354,9.353 24.573,9.353 33.928,0 l 16.63,-16.631 c -6.214,1.195 -12.74,0.33 -18.504,-2.561 z" />
  </g>
</svg>
