<svg xmlns="http://www.w3.org/2000/svg" viewBox="0 0 180 180">
  <path fill="#000000" fill-rule="evenodd" d="M106.906508,52.3653008 C136.709267,53.0166162 150,68.9169188 150,105.477563 C150,144.057429 136.133238,158.747987 104.967332,158.747987 C85.609621,158.747987 72.6760347,152.268619 65.8145546,138.008462 C69.1579055,138.418124 72.5295656,138.56927 75.8638905,138.482722 C93.5850044,138.022617 107.088056,131.747423 110.08903,130.402533 C114.81276,128.285707 116.22555,122.26386 116.22555,105.477563 C116.22555,83.7849633 114.028925,80.2153444 104.830094,80.2153444 C100.078466,80.2153444 98.8336838,84.1905226 95.5849018,85.7036258 C91.795169,87.4684343 84.8963537,89.3378635 81.2772963,89.5306939 C79.6232627,89.6189035 77.0401559,89.7592184 76.24032,89.0240012 C75.4406893,88.2889892 75.2209857,85.582594 75.058721,83.814093 C74.7873224,80.8549669 74.7590133,77.8878404 74.7208575,74.9180471 C74.681676,71.8698908 74.7325504,68.8061439 74.9352274,65.7639366 C75.0568747,63.9373814 75.1065183,61.3546849 76.2296528,60.347864 C77.3527873,59.3410431 79.9180471,59.5763372 81.6740346,59.7234217 C85.4910508,60.0430278 89.0309247,60.4048926 92.7035233,61.4931535 C94.3085286,61.972973 96.215088,62.5567978 98.2051387,63.182676 C100.6547,63.9527668 102.841479,64.2725781 104.178984,63.5474127 C105.516488,62.8222473 106.00041,61.0315914 106.230371,58.8312734 C106.455818,56.6758808 106.906508,52.3653008 106.906508,52.3653008 Z M98.9220986,24.569619 C93.2928868,22.5102313 84.3687369,21 77.092056,21 C44.4159598,21 30,39.8093748 30,73.8585056 C30,110.653623 45.102436,127.540848 75.3073491,127.540848 C83.1331863,127.540848 92.6064926,125.755936 99.1965742,122.872711 L96.3133494,97.3358121 C91.6454177,99.3954049 86.0164111,100.493718 80.1127237,100.493718 C66.3831991,100.493718 63.77445,94.8645059 63.77445,73.9957434 C63.77445,54.2252936 65.9712806,48.7335248 79.5633622,48.7335248 C85.7417303,48.7335248 91.5081799,49.6945997 96.0388738,51.0675932 L98.9220986,24.569619 Z"/>
</svg>
