<svg viewBox="0 0 320 320" version="1" xmlns="http://www.w3.org/2000/svg" fill-rule="evenodd" clip-rule="evenodd" stroke-linejoin="round">
    <path d="M157 222c-31 0-60-3-90-10-52-12-59-30-61-35-2 23 1 40 1 41 1 21 25 36 41 43 35 12 71 18 109 18v34l62-63-62-62v34zm156-46c1 9 4 39-2 54s-21 31-73 46v-61c60-12 74-30 75-39zm-162-26c31 1 66 5 101 16 14 4 25 10 35 17 7-1 15-9 15-17-3-19-32-30-37-31-35-11-77-15-114-15V97l-39 38 39 39v-24zM29 180c3-6 20-19 62-26v-29c-25 3-45 9-64 21-6 6-9 9-10 16 0 6 4 12 12 18z" fill-rule="nonzero"/>
</svg>
