<svg viewBox="0 0 455 455" width="240" height="240" xmlns="http://www.w3.org/2000/svg"><g clip-path="url(#clipPath18)" transform="matrix(1.33333 0 0 -1.33333 -145.246 831.204)"><path d="M222.01 476.452s8.086 88.398-18.326 137.45c0 0 14.554-2.696 23.178-32.342 0 0 9.703 16.71 9.164 32.342 0 0 7.546-10.78 7.007-28.03 0 0 8.624 21.022 12.398 20.483 3.772-.539 3.233-21.56 3.233-21.56s18.327 27.49 12.937-12.937c0 0 18.327 4.312 11.32-20.483 0 0 9.163 4.312 7.546-14.015 0 0 8.624 4.313 4.313-14.015 0 0 10.78-3.234 1.078-17.247 0 0 11.319-3.234-.54-15.63 0 0 10.78 2.693 9.164-10.243 0 0 67.379 37.73 80.854 92.711 0 0-.54-8.625-2.695-21.022 0 0 13.475 16.171 18.327 29.646 0 0-3.234-17.249-8.086-27.49 0 0 10.78 11.32 12.398 14.554 0 0 2.156-7.007.539-9.703 0 0 15.63 8.625-1.08-22.638 0 0 18.329 10.78 3.775-12.938 0 0 23.178 0-2.156-17.247 0 0 14.014-2.156-2.696-15.092 0 0 8.086-8.625-7.546-15.093 0 0 6.469-10.78-8.084-12.937 0 0 4.85-12.397-7.008-11.319 0 0-7.546-22.1-17.248-17.788 0 0-14.015-22.1-23.718-10.24 0 0 1.617-19.406-21.023-4.853 0 0 8.624-9.702-24.255-6.468 0 0 17.787-29.646 17.787-37.193 0 0 19.944-21.02 27.49-23.717 7.548-2.695 26.413-29.646 26.413-29.646s-18.326 15.632-23.178 12.937c0 0 37.193-31.802 37.193-45.278 0 0-16.171 10.78-26.952 20.483 0 0 4.313-13.476 11.859-18.327 0 0-26.951-6.469-66.84 65.222 0 0-17.248 3.773-21.561 8.624 0 0-4.312-17.249-40.426 4.851 0 0-11.32-15.63-16.171-3.773 0 0-7.008-1.617-4.851 6.47 0 0-8.086-3.236-4.851 5.388 0 0-15.093-5.928-10.242 2.157 4.852 8.086 26.412 1.617 37.732-3.235 11.319-4.85 16.17-7.007 17.249-2.694 0 0-53.903 30.724-61.988 47.434-8.085 16.71-4.312 30.724-4.312 30.724s-35.037 17.788-34.498 26.412c0 0-13.476-.539-16.71 4.851l12.937 3.234-14.015 1.617s2.696 8.625 16.17 12.937c0 0 5.029 19.765 28.028 23.72 0 0-3.594 6.467-2.516 12.935 0 0 11.5-19.404 17.609-21.202 6.108-1.796 21.56-19.763 22.639-40.964z"/></g></svg>