<svg xmlns="http://www.w3.org/2000/svg" viewBox="0 0 512 512"><path d="M288 287c-5 0-9 3-12 7v-31h-13v95h13v-5c4 4 8 6 12 6 9 0 12-7 12-15v-39c0-10-3-18-12-18zm-1 55l-1 5h-7l-3-2v-44l3-2c2-1 5-1 6 1l2 5v37zm-44-139v-34c0-4 2-7 6-7s6 3 6 7v34c0 4-2 7-6 7s-6-3-6-7zm-6 85h13v70h-13v-8l-8 7c-7 4-16 4-16-10v-59h13v54c0 3 0 4 3 5 3 0 6-4 8-6v-53zm-24-11h-15v81h-15v-81h-15v-14h45v14zm117 9c-12 0-20 9-20 21v31c0 13 7 22 19 22 14 0 20-8 20-22v-5h-14v5c0 6 0 10-6 10-5 0-5-5-5-10v-13h25v-18c0-13-6-21-19-21zm5 28h-11v-7c0-5 1-9 6-9 4 0 5 4 5 9v7zM256 50a206 206 0 1 0 0 412 206 206 0 0 0 0-412zm24 98h14v57c0 3 1 5 4 5 2 0 6-3 8-5v-57h14v74h-14v-8c-6 7-12 9-16 9-7 0-10-5-10-13v-62zm-31 0c11 0 20 8 20 20v36c0 12-9 20-20 20-13 0-20-7-20-20v-36c0-12 8-20 20-20zm-56-26l11 40 10-40h15l-18 60v40h-15v-40l-18-60h15zm176 228c0 18-14 32-31 32H176c-17 0-31-14-31-32v-79c0-18 14-32 31-32h162c17 0 31 14 31 32v79z"/></svg>